<svg xmlns="http://www.w3.org/2000/svg" width="122" height="17" fill="none"><path fill="#fff" d="M114.8 2.773c-3.927 0-6.822 2.956-6.822 6.782s2.956 6.801 6.883 6.801c2.206 0 4.251-.87 5.667-2.672l-2.652-1.903c-.708.912-1.741 1.458-2.914 1.458-1.741 0-3.118-1.075-3.563-2.653h10.141c.059-.364.079-.667.079-1.032h.002c0-3.908-2.894-6.782-6.822-6.782h.001Zm-3.301 5.346c.486-1.437 1.762-2.348 3.361-2.348 1.599 0 2.914.89 3.401 2.348h-6.762ZM102.876.567v3.52c-.87-.828-2.147-1.314-3.624-1.314-3.725 0-6.6 2.855-6.6 6.782 0 3.928 2.875 6.801 6.6 6.801 1.639 0 2.914-.588 3.805-1.518v1.255h3.259V.567h-3.44Zm-3.261 12.551c-1.964 0-3.502-1.538-3.502-3.623 0-2.086 1.479-3.585 3.502-3.585 2.024 0 3.542 1.48 3.542 3.585s-1.517 3.623-3.542 3.623Zm-10.1 3.238a2.179 2.179 0 0 1-2.187-2.187c0-1.216.97-2.166 2.187-2.166 1.216 0 2.166.972 2.166 2.166 0 1.195-.952 2.187-2.166 2.187Zm-2.773-6.8c0-3.909-2.914-6.783-6.84-6.783-3.927 0-6.823 2.956-6.823 6.782s2.957 6.801 6.883 6.801c2.206 0 4.25-.87 5.668-2.672l-2.653-1.903c-.708.912-1.741 1.458-2.914 1.458-1.741 0-3.118-1.075-3.563-2.653h10.14c.06-.364.1-.667.1-1.032l.002.001ZM76.599 8.118c.486-1.437 1.762-2.348 3.36-2.348 1.6 0 2.915.89 3.402 2.348h-6.762ZM67.976.567v15.526h3.44V.567h-3.44Zm-4.05 3.3c-1.112 0-1.963-.87-1.963-1.924 0-1.055.85-1.943 1.964-1.943 1.113 0 1.964.87 1.964 1.943s-.87 1.924-1.964 1.924Zm1.723 12.226h-3.461V4.92h3.46v11.173ZM53.907 2.773c-1.5.001-2.733.486-3.644 1.316V.566h-3.421V16.07h3.238v-1.234c.89.931 2.187 1.518 3.826 1.518 3.723 0 6.578-2.914 6.578-6.8 0-3.888-2.854-6.783-6.578-6.783Zm-.384 10.345C51.538 13.118 50 11.58 50 9.495c0-2.086 1.52-3.585 3.523-3.585 2.004 0 3.503 1.48 3.503 3.585s-1.5 3.623-3.503 3.623ZM38.34 2.773c-3.908 0-6.884 2.855-6.884 6.782 0 3.928 2.978 6.801 6.884 6.801 3.905 0 6.84-2.914 6.84-6.8 0-3.888-2.932-6.783-6.84-6.783Zm0 10.385c-2.006 0-3.483-1.477-3.483-3.603 0-2.125 1.54-3.624 3.483-3.624S41.8 7.45 41.8 9.555c0 2.106-1.498 3.603-3.46 3.603Zm-8.483-7.612c0-1.498-.91-2.733-2.552-2.733-1.234 0-2.187.688-2.692 1.964l-2.812 6.942V5.546c0-1.498-.87-2.733-2.49-2.733-1.337 0-2.167.769-2.653 1.964l-2.874 7.064V3.036h-3.017v13.056h4.108l3.99-9.414v7.086c0 1.477.808 2.552 2.287 2.552 1.275 0 1.964-.73 2.429-1.842l3.26-7.854v9.473h3.016V5.546Z"/><path fill="#FA3C00" d="M2.855 3.037h5.587v13.057H2.855A2.852 2.852 0 0 1 0 13.239v-7.35a2.852 2.852 0 0 1 2.855-2.854v.002Z"/></svg>